<?xml version="1.0" encoding="utf-8"?>
<!-- Generator: Adobe Illustrator 22.1.0, SVG Export Plug-In . SVG Version: 6.00 Build 0)  -->
<svg version="1.1" id="Layer_1" xmlns="http://www.w3.org/2000/svg" xmlns:xlink="http://www.w3.org/1999/xlink" x="0px" y="0px"
	 viewBox="0 0 300 100" style="enable-background:new 0 0 300 100;" xml:space="preserve">
<style type="text/css">
	.st0{fill:#5A4FA1;}
	.st1{fill:#FFFFFF;}
	.st2{fill:#969696;}
	.st3{fill:#5DC9DE;}
	.st4{fill:#F3B81A;}
	.st5{fill:#183C68;}
</style>
<g>
	<g>
		<path class="st5" d="M74.4,78.4c0,0.8-0.1,1.5-0.4,2.2c-0.3,0.6-0.6,1.2-1.1,1.7c-0.5,0.5-1.1,0.8-1.8,1c-0.7,0.2-1.5,0.4-2.3,0.4
			c-1.4,0-2.6-0.2-3.6-0.7c-1.1-0.4-1.9-0.9-2.6-1.5l2-2c0.5,0.5,1.1,0.9,1.8,1.1c0.4,0.2,0.8,0.3,1.2,0.3c0.4,0,0.7,0.1,0.9,0.1
			c0.4,0,0.8-0.1,1.2-0.2c0.4-0.1,0.7-0.3,0.9-0.4c0.6-0.4,0.8-1,0.8-1.6c0-0.4-0.1-0.8-0.4-1.1c-0.2-0.3-0.5-0.5-0.9-0.6
			c-0.3-0.2-0.6-0.3-0.9-0.4c-0.3-0.1-0.6-0.2-0.9-0.3c-0.1,0-0.2-0.1-0.2-0.1c-0.1,0-0.1,0-0.2-0.1c0,0-0.1,0-0.1,0
			c-0.3-0.1-0.8-0.3-1.5-0.5c-0.6-0.2-1.3-0.6-1.9-1c-1.5-1-2.2-2.2-2.2-3.7c0-1,0.2-1.8,0.5-2.5c0.3-0.7,0.8-1.2,1.3-1.6
			c0.5-0.4,1.1-0.7,1.8-0.9c0.7-0.2,1.3-0.3,2-0.3c1.2,0,2.2,0.1,3,0.4c0.8,0.3,1.4,0.6,1.9,0.8c0.2,0.1,0.5,0.3,0.6,0.4
			c0.2,0.1,0.3,0.3,0.5,0.4l-2.1,2.1c-0.4-0.4-0.9-0.8-1.4-1c-0.7-0.3-1.4-0.5-2.2-0.5c-0.3,0-0.7,0-1,0.1c-0.3,0.1-0.6,0.2-0.9,0.3
			c-0.7,0.4-1.1,1-1.1,1.8c0,0.4,0.1,0.8,0.4,1.1c0.2,0.2,0.5,0.5,0.9,0.7c0.3,0.2,0.6,0.3,1,0.4c0.3,0.1,0.7,0.2,1,0.3l0.3,0.1
			c0.1,0,0.2,0.1,0.5,0.1c0.2,0.1,0.5,0.2,0.8,0.3c0.3,0.1,0.7,0.3,1,0.5c0.4,0.2,0.7,0.4,1.1,0.6C73.6,75.8,74.4,77,74.4,78.4z"/>
		<path class="st5" d="M90.9,65.7c1.2,0,2.4,0.2,3.5,0.7c1.1,0.5,2,1.1,2.9,1.9c0.8,0.8,1.5,1.8,1.9,2.9c0.5,1.1,0.7,2.3,0.7,3.5
			s-0.2,2.4-0.7,3.5c-0.5,1.1-1.1,2-1.9,2.9c-0.8,0.8-1.8,1.5-2.9,1.9c-1.1,0.5-2.3,0.7-3.5,0.7c-1.2,0-2.4-0.2-3.5-0.7
			c-1.1-0.5-2-1.1-2.9-1.9c-0.8-0.8-1.5-1.8-1.9-2.9c-0.5-1.1-0.7-2.3-0.7-3.5s0.2-2.4,0.7-3.5c0.5-1.1,1.1-2,1.9-2.9
			c0.8-0.8,1.8-1.5,2.9-1.9C88.5,66,89.7,65.7,90.9,65.7z M90.9,68.7c-0.8,0-1.6,0.2-2.3,0.5c-0.7,0.3-1.4,0.7-1.9,1.3
			c-0.6,0.6-1,1.2-1.3,1.9c-0.3,0.7-0.5,1.5-0.5,2.3c0,0.8,0.2,1.6,0.5,2.3c0.3,0.7,0.7,1.4,1.3,2c0.6,0.6,1.2,1,1.9,1.3
			c0.7,0.3,1.5,0.4,2.3,0.4c0.8,0,1.6-0.1,2.3-0.4c0.7-0.3,1.4-0.7,2-1.3c0.6-0.6,1-1.2,1.3-2s0.4-1.5,0.4-2.3
			c0-0.8-0.1-1.6-0.4-2.3c-0.3-0.7-0.7-1.4-1.3-1.9c-0.6-0.6-1.2-1-2-1.3C92.5,68.8,91.7,68.7,90.9,68.7z"/>
		<path class="st5" d="M117.5,80.6v3.1h-7h-3.1v-3.1V65.8h3.1v14.8H117.5z"/>
		<path class="st5" d="M139.8,65.7v10.6c0,1-0.2,2-0.6,2.9c-0.4,0.9-0.9,1.7-1.6,2.4c-0.7,0.7-1.5,1.2-2.4,1.6
			c-0.9,0.4-1.9,0.6-2.9,0.6c-1,0-2-0.2-2.9-0.6c-0.9-0.4-1.7-0.9-2.4-1.6c-0.7-0.7-1.2-1.5-1.6-2.4c-0.4-0.9-0.6-1.9-0.6-2.9V65.7
			h3v10.6c0,0.6,0.1,1.1,0.3,1.7c0.2,0.5,0.5,1,1,1.4c0.4,0.4,0.9,0.7,1.4,1c0.5,0.2,1.1,0.3,1.7,0.3c1.2,0,2.2-0.4,3.1-1.3
			c0.4-0.4,0.7-0.9,1-1.4c0.2-0.5,0.3-1.1,0.3-1.7V65.7H139.8z"/>
		<path class="st5" d="M160.9,68.8h-5.2v14.8h-3.1V68.8h-5.3v-3.1h5.3h3.1h5.2V68.8z"/>
		<path class="st5" d="M171.5,83.7h-3.1V65.8h3.1V83.7z"/>
		<path class="st5" d="M188,65.8c1.2,0,2.4,0.2,3.5,0.7c1.1,0.5,2,1.1,2.9,1.9c0.8,0.8,1.5,1.8,1.9,2.9c0.5,1.1,0.7,2.3,0.7,3.5
			c0,1.2-0.2,2.4-0.7,3.5c-0.5,1.1-1.1,2-1.9,2.9c-0.8,0.8-1.8,1.5-2.9,1.9c-1.1,0.5-2.3,0.7-3.5,0.7c-1.2,0-2.4-0.2-3.5-0.7
			c-1.1-0.5-2-1.1-2.9-1.9c-0.8-0.8-1.5-1.8-1.9-2.9c-0.5-1.1-0.7-2.3-0.7-3.5c0-1.2,0.2-2.4,0.7-3.5c0.5-1.1,1.1-2,1.9-2.9
			c0.8-0.8,1.8-1.5,2.9-1.9C185.6,66,186.7,65.8,188,65.8z M188,68.7c-0.8,0-1.6,0.2-2.3,0.5c-0.7,0.3-1.4,0.7-1.9,1.3
			c-0.6,0.6-1,1.2-1.3,1.9c-0.3,0.7-0.5,1.5-0.5,2.3c0,0.8,0.2,1.6,0.5,2.3c0.3,0.7,0.7,1.4,1.3,2c0.6,0.6,1.2,1,1.9,1.3
			c0.7,0.3,1.5,0.4,2.3,0.4c0.8,0,1.6-0.1,2.3-0.4c0.7-0.3,1.4-0.7,2-1.3c0.6-0.6,1-1.2,1.3-2c0.3-0.7,0.4-1.5,0.4-2.3
			c0-0.8-0.1-1.6-0.4-2.3c-0.3-0.7-0.7-1.4-1.3-1.9c-0.6-0.6-1.2-1-2-1.3C189.5,68.9,188.8,68.7,188,68.7z"/>
		<path class="st5" d="M218.1,65.7v18h-3.3l-7.2-12.3v12.3h-3.1v-18h3.3L215,78V65.7H218.1z"/>
		<path class="st5" d="M238,78.4c0,0.8-0.1,1.5-0.4,2.2c-0.3,0.6-0.6,1.2-1.1,1.7c-0.5,0.5-1.1,0.8-1.8,1c-0.7,0.2-1.5,0.4-2.3,0.4
			c-1.4,0-2.6-0.2-3.7-0.7c-1.1-0.4-1.9-0.9-2.6-1.5l2-2c0.5,0.5,1.2,0.9,1.8,1.1c0.4,0.2,0.8,0.3,1.2,0.3c0.4,0,0.7,0.1,0.9,0.1
			c0.4,0,0.8-0.1,1.2-0.2c0.4-0.1,0.7-0.3,0.9-0.4c0.6-0.4,0.8-1,0.8-1.6c0-0.4-0.1-0.8-0.4-1.1c-0.2-0.3-0.5-0.5-0.9-0.6
			c-0.3-0.2-0.6-0.3-0.9-0.4c-0.3-0.1-0.6-0.2-0.9-0.3c-0.1,0-0.2-0.1-0.2-0.1c-0.1,0-0.1,0-0.2-0.1c0,0-0.1,0-0.1,0
			c-0.3-0.1-0.8-0.3-1.5-0.5c-0.6-0.2-1.3-0.6-1.9-1c-1.5-1-2.2-2.2-2.2-3.7c0-1,0.2-1.8,0.5-2.5c0.3-0.7,0.8-1.2,1.3-1.6
			c0.5-0.4,1.1-0.7,1.8-0.9c0.7-0.2,1.3-0.3,2-0.3c1.2,0,2.2,0.1,3,0.4c0.8,0.3,1.4,0.6,1.9,0.8c0.2,0.1,0.5,0.3,0.6,0.4
			c0.2,0.1,0.3,0.3,0.5,0.4l-2.1,2.1c-0.4-0.4-0.9-0.8-1.4-1c-0.7-0.3-1.4-0.5-2.2-0.5c-0.3,0-0.7,0-1,0.1c-0.3,0.1-0.6,0.2-0.9,0.3
			c-0.7,0.4-1.1,1-1.1,1.8c0,0.4,0.1,0.8,0.4,1.1c0.2,0.2,0.5,0.5,0.9,0.7c0.3,0.2,0.6,0.3,1,0.4c0.3,0.1,0.7,0.2,1,0.3l0.3,0.1
			c0.1,0,0.2,0.1,0.5,0.1c0.2,0.1,0.5,0.2,0.8,0.3c0.3,0.1,0.7,0.3,1,0.5c0.4,0.2,0.7,0.4,1.1,0.6C237.2,75.8,238,77,238,78.4z"/>
	</g>
	<g>
		<path class="st5" d="M33.2,16.3L16.6,53h6.9l2.8-6.3h15.2l0,0h5.3l0,0l2.8,6.3h6.9L40.1,16.3H33.2z M36.6,24l7.4,16.4h-6.6v0h-8.3
			L36.6,24z"/>
		<polygon class="st5" points="91.8,41.4 77.1,16.3 70.3,16.3 70.3,53 76.6,53 76.6,27.9 91.3,53 98.1,53 98.1,16.3 91.8,16.3 		"/>
		<polygon class="st5" points="122.8,16.3 112,16.3 112,22.6 122.7,22.6 122.7,31.2 122.8,31.2 122.8,53 129,53 129,31.2 129,22.6 
			139.8,22.6 139.8,16.3 129,16.3 		"/>
		<polygon class="st5" points="171.2,32.9 160.8,16.3 153.4,16.3 168.1,39.8 168.1,53 174.4,53 174.4,40.6 174.4,39.8 174.9,38.9 
			189.1,16.3 181.6,16.3 		"/>
		<path class="st5" d="M227.5,36.6c0.6-1,1.2-2.1,1.5-3.3c0.4-1.2,0.5-2.5,0.5-3.8c0-1.8-0.3-3.5-1-5.1c-0.7-1.6-1.6-3-2.8-4.2
			c-1.2-1.2-2.6-2.1-4.2-2.8c-1.6-0.7-3.3-1-5.1-1h-13.7v9.7v16.6V53h6.3V42.7h6.5l6.6,10.3h7.5l-7.5-11.6c1.1-0.5,2.1-1.2,3.1-2
			C226.1,38.5,226.9,37.6,227.5,36.6z M222.8,32.1c-0.3,0.8-0.8,1.6-1.5,2.3c-1.4,1.4-3,2-4.9,2h-2.7l0,0H209v0V26.1v-3.5h7.4
			c1.9,0,3.5,0.7,4.9,2c0.6,0.6,1.1,1.4,1.5,2.2c0.3,0.8,0.5,1.7,0.5,2.6C223.3,30.4,223.1,31.3,222.8,32.1z"/>
		<path class="st5" d="M266.8,16.3h-6.9L243.4,53h6.9l2.8-6.3h15.2l0,0h5.3l0,0l2.8,6.3h6.9L266.8,16.3z M263.4,24l7.4,16.4h-7.4v0
			h-7.4L263.4,24z"/>
	</g>
</g>
</svg>
